<svg viewBox="0 0 500 500" xmlns="http://www.w3.org/2000/svg" fill-rule="evenodd" clip-rule="evenodd" stroke-linejoin="round" stroke-miterlimit="1.414"><g transform="matrix(1.91982 0 0 1.57064 -1144.7 -317.978)"><ellipse cx="725.398" cy="360.343" rx="129.299" ry="153.117" fill="#f8fdff"/><clipPath id="a"><ellipse cx="725.398" cy="360.343" rx="129.299" ry="153.117"/></clipPath><g clip-path="url(#a)"><path d="M725.398 207.226c-71.41 0-129.3 68.553-129.3 153.117S653.99 513.46 725.4 513.46V207.226z"/></g></g><path d="M232.044 466.14c22.967-66.514-131.998-134.516-125.65-223.7 5.554-78.068 73.446-136.938 151.515-131.382 78.066 5.556 136.937 73.447 131.38 151.515-6.345 89.183-110.543 183.855-157.246 203.566z" fill="#880e4f"/><path d="M166.62 57.894l14.285 16.298 13.994 37.97-.29 21.67-14.285-16.3-13.995-37.968.29-21.67zM297.57 42l3.312 24.826-9.26 46.485-12.572 21.66-3.312-24.824 9.26-46.485L297.567 42zM247.502 27.25l6.563 26.22-.48 52.315-7.043 26.095-6.563-26.22.48-52.316 7.042-26.095zM322.95 72.193l-.06 18.895-14.235 31.39-14.175 12.493.06-18.894 14.234-31.39 14.175-12.493zM198.013 82.918l9.99 10.73 7.82 25.23-2.173 14.5-9.99-10.73-7.82-25.23 2.173-14.5zM214.447 57.534l10.73 17.27 9.37 37.477-1.36 20.21-10.73-17.27-9.37-37.477 1.36-20.21zM273.06 70.962l-9.36 14.163-5.96 30.717 3.4 16.554 9.357-14.163 5.96-30.718-3.398-16.553z" fill="#467b3f"/><path d="M229.262 212.71c-.17 10.326-17.32 18.43-38.278 18.085-20.956-.344-37.833-9.007-37.664-19.33 3.487 7.44 19.16 13.693 37.752 13.998 18.59.306 34.462-5.43 38.19-12.752zM350.617 213.563c-.17 10.324-17.72 18.42-39.166 18.07-21.446-.353-38.72-9.022-38.552-19.347 3.572 7.443 19.614 13.702 38.64 14.014 19.026.312 35.266-5.416 39.08-12.737zM328.906 309.257c-2.656-12.23-38.664-21.603-82.25-20.887-43.584.716-79.267 11.267-81.52 23.577l163.77-2.69zM455.597 260.738c-21.377 8.003-49.578 17.626-49.578 17.626a7.017 7.017 0 0 1-8.443-5.206 7.017 7.017 0 0 1 5.205-8.443s27.54 2.788 52.815-3.977zM45.532 260.738c21.377 8.003 49.578 17.626 49.578 17.626a7.017 7.017 0 0 0 8.442-5.206 7.017 7.017 0 0 0-5.205-8.443s-27.54 2.788-52.815-3.977zM220.716 263.157c.018-3.067 11.81-5.486 26.34-5.402 14.53.083 26.296 2.638 26.28 5.705l-26.31-.152-26.31-.15z" fill="#321e21"/><ellipse cx="120.749" cy="240.42" rx="11.172" ry="11.145" fill="#fff" transform="translate(-97.007 -82.194) scale(1.30256)"/><ellipse cx="120.749" cy="240.42" rx="11.172" ry="11.145" fill="#fffafb" transform="matrix(.65128 0 0 .86435 -18.365 -16.162)"/><ellipse cx="120.749" cy="240.42" rx="11.172" ry="11.145" transform="matrix(.65128 0 0 .86435 355.127 -16.162)"/><ellipse cx="120.749" cy="240.42" rx="11.172" ry="11.145" transform="translate(276.486 -82.194) scale(1.30256)"/></svg>