<svg viewBox="0 0 331 334" xmlns="http://www.w3.org/2000/svg" fill-rule="evenodd" clip-rule="evenodd" stroke-linejoin="round" stroke-miterlimit="1.414"><g transform="translate(-89.034 -84.02)"><clipPath id="a"><path d="M89.034 84.02h330.148v333.256H89.034z"/></clipPath><g clip-path="url(#a)"><path d="M105.215 239.023s-7.472 20.79-7.472 29.7a7.475 7.475 0 0 0 7.472 7.472 7.475 7.475 0 0 0 7.47-7.472c0-8.91-7.47-29.7-7.47-29.7z" fill="#65cbfd"/><path d="M252.947 166.625c27.152 0 81.454 0 108.608 25.065 27.153 25.066 27.153 75.196 0 125.325-19.007 37.598-67.88 75.196-108.608 100.26-40.73-25.064-89.603-62.662-108.61-100.26-27.152-50.13-27.152-100.26 0-125.325 27.153-25.065 81.457-25.065 108.61-25.065z" fill="#880e4f"/><path d="M191.218 107.548l10.967 12.512 10.744 29.15-.224 16.636-10.966-12.513-10.744-29.15.222-16.635zM291.75 95.347l2.544 19.058-7.11 35.687-9.65 16.63-2.544-19.06 7.108-35.686 9.652-16.63zM252.938 84.02l5.226 20.082.006 40.165-5.22 20.083-5.226-20.082-.005-40.165 5.218-20.083zM311.235 118.526l-.046 14.506-10.93 24.097-10.88 9.59.045-14.505 10.928-24.098 10.882-9.59zM215.32 126.76l7.67 8.237 6.002 19.37-1.668 11.13-7.67-8.237-6.003-19.37 1.67-11.13zM227.936 107.273l8.238 13.257 7.193 28.773-1.044 15.515-8.237-13.257-7.194-28.772 1.044-15.515zM272.933 117.58l-7.185 10.874-4.575 23.582 2.61 12.71 7.184-10.875 4.575-23.58-2.61-12.71z" fill="#43a047"/><path d="M229.504 241.212c-.13 7.926-17.39 14.08-38.52 13.733-21.13-.347-38.18-7.064-38.05-14.99 3.545 5.726 19.372 10.59 38.117 10.897 18.746.308 34.724-4.033 38.454-9.64zM349.474 241.212c-.13 7.926-17.39 14.08-38.52 13.733-21.13-.347-38.18-7.064-38.05-14.99 3.545 5.726 19.372 10.59 38.117 10.897 18.746.308 34.724-4.033 38.454-9.64zM314.638 323.94c-1.887 7.215-29.412 13.062-62.877 13.05-33.464-.013-60.986-5.882-62.868-13.097 5.972 5.67 32.086 10.282 62.87 10.294 30.784.012 56.902-4.58 62.876-10.246zM417.145 283.825c-16.41 6.145-38.06 13.532-38.06 13.532a5.387 5.387 0 0 1-6.483-3.997 5.387 5.387 0 0 1 3.996-6.482s21.143 2.14 40.547-3.053zM90.045 283.825c16.41 6.145 38.06 13.532 38.06 13.532a5.387 5.387 0 0 0 6.483-3.997 5.387 5.387 0 0 0-3.996-6.482s-21.143 2.14-40.547-3.053zM232.746 291.72c.013-2.355 9.067-4.212 20.222-4.148 11.155.064 20.187 2.025 20.174 4.38l-20.2-.116-20.196-.117z" fill="#321e21"/><path d="M171.043 275.302c-.514-.39-.772-.788-.766-1.186.03-2.353 9.106-4.143 20.252-3.994 11.154.148 20.17 2.178 20.14 4.532l-20.197-.27-19.43.918zM329.72 276.545c.517-.382.78-.777.78-1.175 0-2.353-9.05-4.264-20.197-4.264-11.155 0-20.2 1.91-20.2 4.264h20.2l19.416 1.175z" fill="#c48fc8" fill-opacity=".455"/><path d="M399.715 228.54c-2.206 19.91-4.412 33.38-4.412 44.233a4.415 4.415 0 0 0 4.412 4.412 4.414 4.414 0 0 0 4.41-4.412c0-10.854-5.292-22.116-4.41-44.233zM419.182 215.518c-7.78 2.327-15.006 3.982-18.436 8.156a4.535 4.535 0 0 0 .623 6.38 4.536 4.536 0 0 0 6.38-.624c3.43-4.174 3.264-8.97 11.432-13.912z" fill="#43a047"/><path d="M380.25 215.518c7.778 2.327 15.005 3.982 18.435 8.156a4.535 4.535 0 0 1-.623 6.38 4.536 4.536 0 0 1-6.38-.624c-3.43-4.174-3.265-8.97-11.433-13.912z" fill="#43a047"/><path d="M408.204 279.754c.86-.978 1.313-2.087 1.313-3.214 0-3.548-4.392-6.428-9.802-6.428-5.41 0-9.802 2.88-9.802 6.428 0 1.127.454 2.236 1.313 3.214h16.978z" fill="#5b5348"/></g></g></svg>