<svg viewBox="0 0 263 336" xmlns="http://www.w3.org/2000/svg" fill-rule="evenodd" clip-rule="evenodd" stroke-linejoin="round" stroke-miterlimit="1.414"><path d="M131.62 82.75c27.153 0 81.455 0 108.61 25.065 27.15 25.066 27.15 75.195 0 125.325-19.01 37.598-67.882 75.195-108.61 100.26-24.544-13.108-62.19-41.273-85.49-67.517-17.42-19.62-28.312-40.31-26.94-40.475.917-.11 3.424.052 6.365 0 3.673-.066 8.736.032 14.744 0 2.36-.013 29.37-.168 37.965 0 5.815.112 11.524.04 13.447 0 .74-.017.002.23 0 0-.078-8.884.217-8.884 0-17.333-.01-.375-4.11-.043-10.86 0-4.918.03-50.34.01-51.542 0-4.196-.03-17.88.305-17.66 0 .186-.252-.34-.702-1.36-3.838-.527-1.62-2.715-7.32-2.046-7.284 2.717.154 81.314.085 83.468 0 .188-.007.325-17.058 0-17.057-10.97.04-39.84-.205-61.442 0-9.137.087-17.395-.028-22.026 0-2.78.017-3.856.44-3.917 0-.022-.158.193.32 0 0-.36-.595-2.178-11.466-1.68-11.524 1.566-.183 17.616.047 35.922 0 15.944-.04 53.105-.207 53.142 0 .188 1.096.177-17.043 0-17.333-.282-.46-66.567.5-89.064.67-.043 0 1.092-10.462 5.596-21.508 3.552-8.713 9.867-17.79 14.768-22.387C49.92 82.578 104.468 82.75 131.622 82.75z" fill="#7b0042"/><path d="M77.447 22.73L90.39 35.616l7.186 30.224-5.757 17.336-12.944-12.89-7.186-30.223 5.757-17.334zM131.616 2.137l10.56 20.08.007 40.167-10.555 20.084-10.56-20.08-.007-40.167 10.556-20.083zM183.42 20.947l6.126 17.7-5.59 32.31-11.712 14.615-6.124-17.7 5.588-32.31 11.713-14.615zM100.105 25.904l11.87 12.374 7.193 28.773-4.676 16.4-11.87-12.375-7.193-28.772 4.675-16.4zM159.853 36.128l-10.722 10.21-4.574 23.583 6.146 13.372 10.72-10.21 4.576-23.583-6.145-13.372z" fill="#43a047"/></svg>